<?xml version="1.0" encoding="UTF-8"?>
<svg id="Layer_2" data-name="Layer 2" xmlns="http://www.w3.org/2000/svg" viewBox="0 0 942.42 674.57">
  <defs>
    <style>
      .cls-1 {
        fill: #cc6100;
      }

      .cls-2 {
        fill: #ffc83e;
      }
    </style>
  </defs>
  <g id="DESIGN_LAYERS_-_Make_more_if_needed" data-name="DESIGN LAYERS - Make more if needed">
    <path class="cls-1" d="M292.43,423.24l35.79-225.25c.55-3.03,2.48-4.71,4.95-4.71h58.64c2.75,0,4.4,1.35,4.95,4.37l36.89,225.58v1.35c0,2.69-1.65,4.03-4.13,4.03h-42.67c-2.75,0-4.4-1.35-4.68-4.71l-6.88-49.76c-.55-3.36-2.2-4.71-4.68-4.71h-24.23c-2.75,0-4.13,1.68-4.68,4.71l-9.08,49.76c-.55,3.03-1.93,4.71-4.68,4.71h-31.38c-3.03,0-4.68-1.68-4.13-5.38ZM368.13,306.92l-4.68-47.74c-.55-4.37-1.93-6.39-3.58-6.39-1.38,0-3.03,2.02-3.58,6.39l-5.51,47.74v.67c0,3.36,2.2,4.71,6.06,4.71h4.68c4.4,0,7.16-2.02,6.61-5.38Z"/>
    <path class="cls-1" d="M450.5,435.43l-27.19-153.92c-.71-4.61.48-7.93,2.98-8.31l44.63-6.86c2.49-.38,4.63,2.43,5.34,7.04l19.27,125.36c4.09,26.6,6.14,39.91,16.95,38.24,10.81-1.66,8.76-14.96,4.67-41.57l-19.27-125.36c-.71-4.61.48-7.93,2.98-8.31l44.35-6.82c2.49-.38,4.63,2.43,5.34,7.04l27.19,153.92c8.42,54.75,10.69,119.34-45.03,127.91-55.71,8.57-73.78-53.6-82.2-108.35Z"/>
    <path class="cls-1" d="M598.7,488.57v-237.18c0-3.18,1.45-5.3,3.61-5.3h43.84c46.49,0,63.59,23.68,63.59,58.32s-17.1,51.61-30.11,56.56c-1.93.71-2.65,1.77-2.65,2.47s.96,1.41,3.13,2.12c19.03,6.72,26.74,13.79,26.74,33.93v89.08c0,3.18-1.45,5.3-3.61,5.3h-37.57c-2.17,0-3.61-2.12-3.61-5.3v-91.2c0-10.96-6.26-13.79-11.56-13.79-3.61,0-5.78,1.41-5.78,4.95v100.03c0,3.18-1.45,5.3-3.61,5.3h-38.78c-2.17,0-3.61-2.12-3.61-5.3ZM647.59,337.29c6.26,0,19.75-7.42,19.75-28.99,0-18.73-12.04-24.74-18.55-24.74-2.41,0-4.09.71-4.09,2.12v49.84c0,1.06,1.2,1.77,2.89,1.77Z"/>
    <path class="cls-1" d="M831.43,544.58h-57.17c-33.38,0-52.95-29.98-52.95-86.09l-.55-264.76c0-5.74,3.45-9.57,8.83-9.57h98.22c5.37,0,8.82,3.83,8.82,9.57v46.56c0,5.74-3.45,9.57-8.82,9.57h-25.32c-4.99,0-8.44,3.83-8.44,9.57v26.78c0,5.74,3.45,9.57,8.44,9.57h16.88c4.99,0,8.44,3.83,8.44,9.57v46.56c0,5.74-3.45,9.57-8.44,9.57h-16.88c-4.99,0-8.44,2.55-8.44,3.19v19.77c0,5.74,3.45,9.57,8.44,9.57h28.39c4.99,0,8.44,3.83,8.44,9.57l.55,131.47c0,5.74-3.45,9.57-8.44,9.57Z"/>
    <path class="cls-1" d="M848.95,338.34c0-97.03,19.12-161.37,47.81-161.37s45.66,61.93,45.66,161.37c0,53.68-16.39,82.58-46.64,82.58s-46.83-29.59-46.83-82.58ZM907.3,259.55c0-26.49-4.68-46.45-10.54-46.45-7.42,0-12.29,19.27-12.29,46.45,0,14.11,4.88,23.4,12.29,23.4,6.05,0,10.54-9.29,10.54-23.4Z"/>
    <path class="cls-1" d="M429.31,193.85h-14.32v-7.52h36.95v7.52h-14.32v39.2h-8.31v-39.2Z"/>
    <path class="cls-1" d="M457.61,186.33h30.95v7.52h-22.63v11.48h21.45v7.52h-21.45v12.67h23.82v7.52h-32.14v-46.72Z"/>
    <path class="cls-1" d="M548.08,233.04h-27.19c-3.65,0-7.03-.56-10.13-1.68-3.1-1.12-5.79-2.73-8.05-4.82-2.27-2.09-4.05-4.64-5.35-7.65-1.3-3.01-1.95-6.41-1.95-10.2,0-3.43.65-6.59,1.95-9.47,1.3-2.88,3.07-5.37,5.31-7.46,2.24-2.09,4.85-3.72,7.82-4.88,2.97-1.16,6.13-1.75,9.47-1.75s6.5.58,9.47,1.75c2.97,1.17,5.58,2.79,7.82,4.88,2.24,2.09,4.01,4.58,5.31,7.46,1.3,2.88,1.95,6.04,1.95,9.47,0,2.46-.3,4.63-.89,6.5-.59,1.87-1.37,3.52-2.34,4.95-.97,1.43-2.04,2.63-3.2,3.6-1.17.97-2.3,1.78-3.4,2.44v.13h13.4v6.73ZM519.77,192.66c-2.24,0-4.32.41-6.24,1.22-1.91.81-3.56,1.95-4.95,3.4-1.39,1.45-2.47,3.17-3.27,5.15-.79,1.98-1.19,4.13-1.19,6.47s.4,4.59,1.19,6.63c.79,2.04,1.89,3.8,3.3,5.28,1.41,1.47,3.07,2.63,4.98,3.46,1.91.84,4.01,1.25,6.3,1.25s4.41-.42,6.37-1.25c1.96-.83,3.64-1.99,5.05-3.46s2.51-3.23,3.3-5.28c.79-2.05,1.19-4.26,1.19-6.63s-.4-4.49-1.19-6.47c-.79-1.98-1.89-3.7-3.3-5.15s-3.09-2.58-5.05-3.4c-1.96-.81-4.12-1.22-6.5-1.22Z"/>
    <path class="cls-1" d="M591.56,215.89c0,2.82-.48,5.36-1.45,7.62-.97,2.27-2.29,4.19-3.96,5.78-1.67,1.58-3.65,2.8-5.94,3.66-2.29.86-4.77,1.29-7.46,1.29s-5.17-.43-7.46-1.29c-2.29-.86-4.28-2.08-5.97-3.66-1.69-1.58-3.01-3.51-3.96-5.78-.95-2.27-1.42-4.8-1.42-7.62v-29.56h8.31v29.3c0,1.15.18,2.34.53,3.6.35,1.25.93,2.41,1.75,3.46.81,1.06,1.89,1.92,3.23,2.61,1.34.68,3,1.02,4.98,1.02s3.64-.34,4.98-1.02c1.34-.68,2.42-1.55,3.23-2.61.81-1.06,1.4-2.21,1.75-3.46.35-1.25.53-2.45.53-3.6v-29.3h8.31v29.56Z"/>
    <path class="cls-1" d="M601.59,186.33h8.31v46.72h-8.31v-46.72Z"/>
    <path class="cls-1" d="M620.13,186.33h8.31v39.2h19.86v7.52h-28.18v-46.72Z"/>
    <path class="cls-1" d="M669.49,186.33h7.19l20.12,46.72h-9.5l-4.36-10.69h-20.26l-4.22,10.69h-9.3l20.32-46.72ZM680.05,215.23l-7.19-19-7.32,19h14.52Z"/>
    <path class="cls-2" d="M299.91,119.74c-21.09-3.31-51.72-9.99-64.8-50.05-13.08-40.06-54.76-90.21-67.56-60.92-12.8,29.29,27.51,96.13,40.74,115.39,13.23,19.26,49.24,62.49,12.19,38.57-37.04-23.92-125.23-99.12-119.22-66.12,6.01,33,105.35,95.85,66.76,103.28-38.59,7.44-69.04-46.74-109.55-28.1-40.51,18.64-83.13,50.22-41.22,48.59,81.26-3.16,76.89,18.12,99.27,40.5,13.9,13.9,68.02,8.63,48.21,24.38-19.81,15.75-142.85,42.29-141.1,58.51,1.75,16.23,121.79,10.7,126.34,28.59,4.55,17.89-9.32,47.62-40.08,53.06-30.77,5.44-69.91,20.08-72.73,46.44-2.82,26.36-12.01,37.03,37.71,12.48,49.72-24.55,47.6,4.56,73-12.61,25.4-17.18,52.41-51.43,46.91-26.22-5.49,25.21-85.91,139.73-67.16,138.54,18.75-1.2,107.09-93.92,113.33-74.07,6.24,19.85,8.27,37.19-10.63,70.57-18.89,33.38-39.21,82.69-14.81,72.83,16.96-6.85,13.04-28.32,36.52-34.3,23.49-5.97,45.83-16.42,42.34-48.87s3.31-80.62,17.11-59.13c13.8,21.49,19.89,114.88,36.21,148.99,12.39,25.9,30.07,40.74,20.25-171.65-87.73-7.84-158.68-81.56-156.5-171.3,2.71-111.71,83.41-150.43,160.07-167.76-2.26-67.45-4.51-152.87-23.48-148.04-21.73,5.53-27.02,121.71-48.11,118.4Z"/>
  </g>
</svg>